<?xml version="1.0" standalone="no"?>
<!DOCTYPE svg PUBLIC "-//W3C//DTD SVG 20010904//EN"
 "http://www.w3.org/TR/2001/REC-SVG-20010904/DTD/svg10.dtd">
<svg version="1.0" xmlns="http://www.w3.org/2000/svg"
 width="637.000000pt" height="637.000000pt" viewBox="0 0 637.000000 637.000000"
 preserveAspectRatio="xMidYMid meet">
<metadata>
Created by potrace 1.11, written by Peter Selinger 2001-2013
</metadata>
<g transform="translate(0.000000,637.000000) scale(0.100000,-0.100000)"
fill="#000000" stroke="none">
<path d="M2623 6152 c-103 -35 -152 -57 -182 -82 -22 -19 -57 -48 -76 -64 -52
-42 -95 -109 -128 -200 -16 -45 -35 -97 -42 -116 -10 -26 -11 -47 -4 -80 6
-25 13 -70 16 -100 3 -30 9 -59 13 -65 4 -5 11 -32 15 -60 8 -56 62 -271 72
-288 11 -18 29 -146 22 -159 -3 -7 -9 -30 -13 -50 -5 -30 -4 -38 8 -38 16 0
21 -12 32 -80 5 -35 8 -41 14 -25 6 16 9 12 14 -20 4 -22 11 -54 16 -71 6 -17
10 -37 10 -45 0 -8 7 -24 16 -35 15 -18 15 -17 9 16 -25 140 -35 218 -30 237
3 12 0 23 -5 25 -16 5 -21 152 -9 253 6 50 11 100 11 113 0 16 5 22 14 18 8
-3 14 1 14 8 0 8 7 16 15 20 8 3 15 12 15 21 0 13 4 12 28 -4 19 -14 47 -21
97 -23 69 -3 70 -3 73 23 2 14 -4 31 -12 39 -9 7 -16 9 -16 5 0 -4 -10 -1 -23
8 -25 16 -77 20 -77 5 0 -7 -4 -7 -12 -1 -7 5 -32 11 -55 12 -47 2 -54 -10
-25 -42 12 -15 13 -18 2 -12 -35 19 -51 41 -56 77 -4 21 -11 41 -15 44 -5 3
-6 11 -2 17 4 6 10 35 14 65 4 29 13 60 20 69 7 8 14 20 15 27 9 61 92 165
136 170 15 1 43 15 63 30 33 26 43 28 144 30 59 2 114 7 122 12 7 4 54 7 104
6 97 -1 113 -3 133 -15 6 -5 16 -6 21 -3 5 3 31 -1 58 -9 44 -13 56 -23 118
-106 38 -50 70 -96 71 -102 1 -7 9 -34 17 -60 13 -41 13 -49 1 -54 -8 -3 -13
-17 -11 -37 l2 -31 -70 -2 c-67 -2 -69 -1 -40 12 20 10 24 14 12 15 -10 0 -28
-5 -39 -11 -11 -6 -43 -11 -72 -11 -28 0 -46 -2 -39 -5 17 -6 -18 -63 -39 -63
-10 0 -18 -5 -18 -11 0 -21 102 1 159 33 36 21 56 28 59 20 2 -8 9 -9 23 -2
15 8 17 7 13 -4 -4 -12 1 -13 32 -6 43 10 61 5 20 -6 -24 -6 -37 -24 -17 -24
13 0 70 -58 63 -64 -3 -4 4 -13 16 -22 12 -8 29 -29 38 -46 11 -22 18 -27 24
-18 26 41 54 -232 48 -456 -3 -114 -2 -141 9 -137 8 3 13 21 13 44 0 28 4 39
15 39 9 0 15 9 15 24 0 14 4 36 9 49 9 22 13 157 10 315 0 35 4 69 10 76 9 10
8 15 -4 20 -13 4 -14 18 -9 76 7 73 5 89 -43 280 -12 52 -23 101 -23 110 0 8
-6 26 -13 40 -8 14 -19 48 -26 75 -15 60 -47 104 -127 175 -33 30 -66 69 -73
87 -34 91 -255 173 -463 173 -97 0 -112 -3 -245 -48z m-23 -844 c0 -6 -7 -5
-15 2 -8 7 -15 17 -15 22 0 6 7 5 15 -2 8 -7 15 -17 15 -22z"/>
<path d="M3096 5396 c3 -9 11 -16 16 -16 13 0 5 23 -10 28 -7 2 -10 -2 -6 -12z"/>
<path d="M3320 5251 c0 -4 -22 -6 -49 -3 -57 5 -133 -15 -109 -29 9 -5 18 -20
22 -33 5 -21 11 -24 55 -23 44 1 49 3 49 24 0 13 2 26 5 29 10 10 29 -7 23
-21 -5 -14 38 -30 55 -20 13 8 7 49 -10 69 -14 17 -41 22 -41 7z m-80 -41 c0
-5 -4 -10 -10 -10 -5 0 -10 5 -10 10 0 6 5 10 10 10 6 0 10 -4 10 -10z"/>
<path d="M2769 5159 c4 -13 14 -25 20 -27 10 -3 10 0 2 16 -16 30 -33 38 -22
11z"/>
<path d="M3090 5169 c0 -5 11 -9 25 -9 14 0 25 2 25 4 0 2 -11 6 -25 8 -14 3
-25 1 -25 -3z"/>
<path d="M2575 5151 c-17 -4 -44 -16 -60 -27 -26 -16 -28 -16 -16 -1 7 9 9 17
4 17 -18 0 -40 -35 -46 -72 -5 -31 -2 -38 14 -43 12 -4 27 -1 37 8 9 8 24 17
32 21 8 3 5 4 -7 2 -25 -5 -31 17 -13 44 9 13 14 11 31 -12 23 -31 36 -34 74
-16 19 9 25 19 25 44 0 18 6 35 13 37 19 8 -54 6 -88 -2z m36 -34 c-1 -12 -15
-9 -19 4 -3 6 1 10 8 8 6 -3 11 -8 11 -12z"/>
<path d="M2710 5113 c-13 -15 -12 -16 4 -10 10 4 20 7 22 7 2 0 4 5 4 10 0 15
-13 12 -30 -7z"/>
<path d="M2765 4944 c-8 -20 -14 -51 -14 -68 1 -21 3 -25 6 -11 3 11 11 27 18
35 11 14 19 80 9 80 -2 0 -11 -16 -19 -36z"/>
<path d="M3080 4963 c0 -5 11 -20 25 -33 16 -15 25 -34 25 -54 0 -23 3 -27 12
-18 15 15 -10 80 -39 100 -13 8 -23 10 -23 5z"/>
<path d="M2855 4810 c3 -5 13 -10 21 -10 8 0 12 5 9 10 -3 6 -13 10 -21 10 -8
0 -12 -4 -9 -10z"/>
<path d="M2808 4773 c7 -3 16 -2 19 1 4 3 -2 6 -13 5 -11 0 -14 -3 -6 -6z"/>
<path d="M3194 4652 c-10 -2 -26 -6 -34 -9 -8 -3 -21 -5 -29 -4 -7 1 -10 -2
-6 -9 4 -6 15 -8 26 -5 13 4 21 1 25 -10 8 -19 -42 -66 -62 -58 -6 2 -16 -3
-23 -11 -10 -12 -9 -13 10 -9 15 4 20 3 15 -5 -13 -22 23 -24 56 -4 27 17 128
115 128 124 0 4 -82 4 -106 0z m36 -26 c0 -7 -6 -19 -14 -25 -19 -16 -32 5
-16 24 16 19 30 19 30 1z"/>
<path d="M2783 4596 c-88 -16 -93 -25 -45 -75 58 -60 132 -85 132 -46 0 8 -8
19 -17 24 -20 12 -14 14 37 12 25 -1 31 1 21 8 -8 5 -20 7 -28 4 -8 -3 -13 2
-13 12 0 17 -1 17 -21 -1 -17 -16 -22 -16 -29 -4 -18 28 -11 48 20 55 33 7 51
26 23 24 -10 -1 -46 -7 -80 -13z"/>
<path d="M3553 4580 c1 -11 5 -20 9 -20 11 0 10 28 -1 35 -6 3 -9 -4 -8 -15z"/>
<path d="M3501 4429 c-19 -33 -70 -101 -113 -151 -43 -51 -78 -95 -78 -100 0
-4 -4 -8 -10 -8 -5 0 -20 -11 -34 -25 -14 -14 -21 -25 -16 -25 5 0 12 5 15 10
4 6 21 16 38 24 18 7 64 46 102 86 39 40 80 82 92 94 12 12 25 40 28 61 4 22
11 45 15 50 4 6 5 17 1 26 -4 12 -15 1 -40 -42z"/>
<path d="M2634 4264 c22 -57 28 -157 10 -185 -3 -6 -1 -15 6 -19 7 -4 14 -40
17 -86 2 -44 14 -104 25 -134 11 -30 21 -62 22 -70 1 -8 9 -26 18 -40 23 -35
77 -190 66 -190 -5 0 -20 7 -33 16 l-25 16 0 -41 c0 -23 9 -59 20 -81 11 -22
20 -48 20 -59 0 -11 9 -25 21 -31 26 -14 18 -24 -11 -15 -12 4 -28 22 -36 41
-14 33 -42 50 -30 18 3 -9 6 -24 6 -35 0 -12 15 -26 40 -39 23 -12 38 -25 34
-31 -3 -6 1 -16 9 -22 8 -7 17 -21 20 -32 3 -13 7 -5 12 23 4 23 11 42 16 42
4 0 11 9 14 20 3 11 14 20 23 20 13 0 11 4 -6 16 -13 9 -22 23 -20 32 1 10 -5
32 -14 50 -9 17 -14 32 -12 32 3 0 27 -11 54 -25 69 -35 76 -31 10 6 -73 40
-75 42 -104 129 -13 41 -40 120 -59 175 -19 55 -43 129 -52 164 -20 78 -28
241 -11 241 6 0 31 -14 55 -30 24 -17 54 -30 66 -30 11 0 25 -4 30 -9 15 -13
115 -24 115 -11 0 5 21 10 48 10 37 1 43 3 29 11 -9 5 -21 8 -26 5 -18 -12
-111 26 -157 64 -56 46 -74 51 -50 15 9 -14 14 -25 11 -25 -14 0 -73 35 -110
64 -60 48 -70 53 -61 30z m181 -884 c3 -5 2 -10 -4 -10 -5 0 -13 5 -16 10 -3
6 -2 10 4 10 5 0 13 -4 16 -10z"/>
<path d="M3544 4163 c3 -54 8 -154 11 -222 3 -68 8 -136 12 -149 l6 -26 8 23
c5 12 14 82 21 156 14 159 26 176 43 62 5 -33 11 -44 21 -40 17 6 44 -14 44
-33 0 -7 -10 -16 -21 -19 -19 -6 -21 -13 -16 -52 3 -25 9 -48 13 -52 5 -3 10
-31 11 -63 2 -42 -1 -58 -12 -62 -29 -11 -14 -22 48 -35 137 -28 153 -31 179
-35 43 -7 63 -23 66 -52 1 -15 7 -33 13 -41 7 -7 10 -16 7 -18 -9 -10 -37 7
-43 24 -5 18 -82 67 -91 58 -3 -3 9 -11 26 -18 22 -10 39 -29 56 -66 14 -29
30 -53 35 -53 6 0 7 6 3 13 -4 6 -3 9 1 4 12 -10 17 -47 7 -47 -4 0 -13 5 -19
11 -6 6 -29 12 -51 13 l-41 3 22 -19 c15 -13 3 -10 -38 10 -65 32 -191 66
-221 60 -16 -3 -20 -16 -26 -72 -6 -66 -9 -71 -60 -123 -29 -30 -64 -59 -78
-66 -45 -22 -67 -197 -25 -197 22 0 18 -37 -7 -62 -24 -24 -27 -69 -17 -281
l4 -88 60 6 c33 4 80 2 105 -4 31 -7 48 -7 57 1 10 8 19 6 34 -8 19 -17 20
-17 13 1 -7 18 -6 18 16 2 30 -21 41 -22 34 -2 -5 12 2 15 29 15 20 0 39 4 42
10 3 5 32 9 63 9 103 -3 153 3 137 15 -12 9 -13 22 -6 64 6 42 5 52 -6 52 -10
0 -12 -6 -8 -20 4 -11 2 -20 -4 -20 -6 0 -11 5 -11 10 0 20 -67 10 -91 -13
-13 -13 -33 -27 -44 -31 -19 -8 -19 -8 3 -19 15 -7 26 -7 30 -1 4 6 30 11 59
12 40 2 51 -1 47 -11 -6 -16 -88 -37 -104 -27 -7 4 -28 3 -49 -2 -54 -14 -79
-11 -105 14 -38 38 -55 73 -50 104 7 40 8 80 6 135 -2 41 -5 48 -31 59 -23 9
-42 9 -82 1 -56 -12 -73 -6 -82 29 -7 28 60 46 117 31 25 -6 45 -6 51 -1 6 5
92 11 191 12 l179 3 6 65 c4 36 10 100 14 142 l8 77 -38 -10 c-46 -13 -53 -6
-33 29 8 15 18 52 21 82 4 30 13 60 20 65 22 16 27 74 14 164 -13 84 -28 109
-49 80 -8 -11 -9 -11 -5 1 8 27 -27 72 -70 91 -24 10 -43 25 -43 34 0 25 64
-7 120 -59 28 -26 60 -46 80 -50 l35 -6 0 -82 c1 -46 4 -105 9 -133 l8 -50 14
27 c19 37 40 45 96 40 l46 -4 -14 -34 c-8 -18 -14 -47 -14 -64 0 -61 -40 -92
-108 -82 l-32 4 -2 -126 c-1 -69 -2 -138 -2 -153 -1 -26 1 -28 37 -25 32 3 37
1 37 -17 0 -30 -36 -63 -61 -56 -17 6 -19 1 -19 -47 0 -29 -3 -93 -5 -143 -3
-49 -2 -83 2 -75 3 8 13 21 22 28 14 12 14 13 -1 8 -31 -9 -20 18 16 41 l34
22 5 -25 c2 -13 1 -27 -3 -29 -4 -3 -10 -13 -13 -24 -4 -17 -1 -19 32 -14 61
9 23 -15 -44 -29 -33 -6 -71 -20 -85 -31 -20 -16 -21 -19 -5 -13 19 7 71 19
144 33 l34 6 -6 -36 c-4 -24 -1 -37 7 -40 10 -4 12 7 8 44 -4 45 -2 51 17 56
15 4 19 11 16 27 -3 11 -1 53 6 91 6 39 15 97 19 130 10 78 26 130 56 182 15
26 19 41 11 37 -7 -2 -21 -23 -31 -44 -10 -22 -21 -40 -26 -40 -10 0 -9 3 38
102 18 37 32 72 32 77 0 6 7 14 16 19 16 9 44 104 44 151 0 20 -4 23 -30 19
l-29 -4 39 36 c37 34 51 60 33 60 -23 -1 -97 -71 -107 -101 -9 -29 -16 -35
-44 -37 -29 -3 -33 -1 -28 15 12 40 19 78 20 102 1 25 4 26 61 27 33 1 68 2
78 3 12 1 17 9 17 30 0 17 5 33 10 36 6 4 8 10 5 15 -3 4 4 6 15 3 11 -3 20
-1 20 5 0 15 -32 20 -53 8 -14 -9 -21 -7 -31 7 -7 9 -21 17 -30 17 -9 0 -16 4
-16 9 0 5 -21 17 -47 26 -27 10 -76 30 -110 46 -34 16 -71 29 -82 29 -11 0
-23 5 -26 10 -3 6 -19 10 -35 10 -15 0 -30 7 -34 15 -3 8 -12 15 -19 15 -8 0
-20 7 -27 15 -8 9 -30 15 -56 15 -33 0 -44 4 -44 16 0 9 -6 14 -12 11 -7 -2
-24 4 -37 14 -13 10 -28 16 -33 13 -13 -9 -48 26 -48 48 0 10 -4 18 -10 18 -5
0 -10 7 -10 15 0 8 -29 46 -65 84 -36 37 -65 72 -65 77 0 14 -60 84 -71 84 -6
0 -8 -37 -5 -97z m254 -276 c2 -10 -3 -17 -12 -17 -18 0 -29 16 -21 31 9 14
29 6 33 -14z m235 -64 c-7 -2 -19 -2 -25 0 -7 3 -2 5 12 5 14 0 19 -2 13 -5z
m202 -103 c4 -6 -7 -10 -25 -10 -18 0 -29 4 -25 10 3 6 15 10 25 10 10 0 22
-4 25 -10z m-490 -274 c11 -8 24 -12 31 -9 15 5 132 -42 156 -64 10 -9 18 -27
18 -40 0 -22 -2 -23 -87 -23 -80 0 -132 9 -175 31 -10 5 -25 9 -33 9 -18 0
-18 0 -4 56 11 44 25 54 47 32 9 -9 12 -8 12 5 0 21 10 22 35 3z m555 -260 c0
-3 -4 -8 -10 -11 -5 -3 -10 -1 -10 4 0 6 5 11 10 11 6 0 10 -2 10 -4z m3 -79
c-3 -18 -9 -34 -13 -37 -4 -3 -11 -30 -15 -60 -9 -68 -13 -74 -33 -58 -14 11
-15 10 -8 -7 5 -11 10 -28 13 -37 7 -23 -17 -157 -29 -164 -14 -9 -21 2 -12
18 5 7 9 60 9 117 1 71 5 106 13 109 16 5 15 29 0 35 -8 3 -7 6 4 6 9 1 20 6
24 12 5 8 -1 10 -20 7 -22 -4 -26 -2 -26 18 0 13 10 32 21 43 12 10 29 25 38
33 24 22 42 3 34 -35z m-620 -52 c-3 -9 -8 -14 -10 -11 -3 3 -2 9 2 15 9 16
15 13 8 -4z m457 -235 c0 -5 -5 -10 -11 -10 -5 0 -7 5 -4 10 3 6 8 10 11 10 2
0 4 -4 4 -10z"/>
<path d="M3235 4205 c-22 -19 -44 -35 -50 -35 -7 0 -20 -9 -31 -21 -18 -20
-18 -20 11 -13 35 9 92 49 106 76 18 33 4 30 -36 -7z"/>
<path d="M2594 3975 c-18 -37 -27 -68 -22 -71 5 -3 0 -17 -13 -30 -12 -13 -25
-21 -29 -19 -4 3 -15 -4 -25 -15 -10 -11 -26 -20 -37 -20 -10 0 -18 -4 -18
-10 0 -5 -6 -10 -14 -10 -8 0 -40 -13 -71 -30 -31 -16 -61 -30 -66 -30 -5 0
-42 -15 -82 -34 -39 -19 -99 -44 -132 -55 -116 -40 -180 -68 -178 -78 3 -15
-52 -36 -88 -35 -16 0 -29 -4 -29 -9 0 -5 -8 -9 -17 -9 -10 0 -33 -9 -51 -20
-30 -19 -33 -24 -27 -53 10 -44 15 -50 31 -36 7 6 11 16 7 22 -4 6 -1 7 6 2 8
-4 10 -17 7 -31 -5 -19 -3 -22 11 -18 16 5 15 3 -1 -10 -22 -18 -40 -21 -31
-6 3 6 0 10 -8 10 -8 0 -23 12 -32 27 l-18 27 -22 -28 c-12 -15 -33 -33 -46
-40 -15 -7 -30 -28 -39 -56 -8 -25 -20 -54 -26 -65 -6 -11 -14 -40 -18 -65 -4
-24 -11 -49 -17 -56 -28 -33 -67 -384 -43 -384 12 0 33 34 34 53 0 12 8 17 29
17 23 0 37 -10 67 -50 43 -56 55 -60 24 -7 -27 45 -20 57 25 47 20 -4 35 -4
35 1 0 5 5 9 11 9 5 0 7 -4 4 -10 -3 -6 4 -10 17 -10 32 -1 58 -18 102 -67 21
-24 45 -43 54 -43 9 0 27 -10 40 -22 24 -23 24 -22 -3 26 -30 51 -33 84 -21
229 5 58 13 69 32 42 23 -32 41 -98 27 -102 -8 -3 -9 -12 -4 -26 4 -12 7 -60
6 -107 -1 -60 2 -90 12 -101 10 -12 12 -26 6 -50 -13 -50 -33 -57 -90 -32 -54
24 -108 35 -268 57 -60 8 -121 18 -134 22 -22 6 -23 5 -17 -17 22 -73 30 -150
18 -169 -15 -25 -16 -107 0 -116 6 -4 23 -8 38 -8 42 -2 124 -76 84 -76 -22 0
-94 41 -95 54 -1 6 -7 -14 -14 -44 -30 -125 -37 -146 -50 -166 -7 -11 -16 -43
-20 -70 -9 -59 -20 -82 -53 -108 -22 -18 -24 -24 -18 -73 4 -38 2 -62 -9 -83
-8 -16 -15 -33 -15 -37 0 -14 38 -13 68 3 36 18 67 18 87 -3 9 -9 39 -18 66
-21 27 -2 49 -9 49 -15 0 -5 8 -3 18 6 9 8 31 17 47 19 28 3 24 6 -40 36 -90
44 -115 67 -115 108 0 24 8 39 31 58 35 29 64 28 88 -5 7 -10 24 -19 36 -19
12 0 74 -31 136 -68 63 -37 131 -76 152 -87 50 -26 167 -159 167 -190 0 -32
-46 -85 -74 -85 -12 0 -33 12 -47 26 -13 14 -71 59 -128 100 -57 41 -119 86
-137 101 -19 14 -34 23 -34 20 0 -7 158 -138 203 -169 21 -14 46 -36 54 -48
24 -33 3 -45 -76 -44 -66 1 -73 4 -153 57 -46 30 -90 62 -97 71 -7 9 -20 16
-28 16 -7 0 -24 6 -36 14 -12 8 -33 17 -47 20 -14 4 4 -9 40 -29 36 -19 76
-44 89 -54 l23 -18 -63 -12 c-86 -17 -220 -51 -241 -62 -10 -5 -24 -6 -32 -3
-10 4 -16 -4 -21 -25 -4 -17 -14 -35 -23 -41 -9 -5 -15 -10 -12 -10 8 0 147
55 213 84 32 14 60 26 62 26 9 0 5 -49 -5 -55 -10 -6 -34 -45 -27 -45 2 0 24
20 49 45 44 43 48 45 104 44 99 -1 107 -12 28 -38 -105 -34 -134 -52 -156 -96
-12 -22 -28 -51 -37 -64 -9 -14 -15 -32 -13 -42 2 -9 -11 -29 -29 -43 -39 -33
-32 -43 13 -21 l33 16 -42 -40 c-53 -52 -81 -97 -67 -111 13 -13 46 15 94 80
19 25 44 56 57 69 24 24 22 41 -3 41 -11 0 -7 8 10 27 l26 28 50 -54 c27 -29
50 -57 50 -62 0 -17 -22 -20 -33 -4 -8 10 -19 14 -30 9 -19 -7 -22 -25 -6 -41
8 -8 8 -17 -1 -33 -9 -16 -17 -20 -36 -16 -30 8 -30 -1 -3 -30 l22 -23 -30
-58 c-17 -32 -28 -64 -25 -72 8 -24 -54 26 -101 80 -23 27 -48 49 -55 49 -8 0
-27 13 -43 30 -27 27 -30 27 -24 7 8 -26 50 -67 69 -67 8 0 34 -24 59 -53 49
-57 138 -108 224 -127 26 -6 55 -18 63 -25 14 -13 20 -11 47 18 111 116 268
410 303 570 7 31 20 59 28 62 13 5 14 -11 8 -127 -9 -184 -22 -258 -67 -390
-47 -136 -59 -171 -57 -172 2 -1 20 -10 40 -20 40 -20 89 -23 198 -11 83 9 82
8 89 84 1 8 7 11 17 7 9 -4 23 -1 30 5 11 9 14 6 14 -19 0 -17 -4 -42 -10 -57
-14 -37 8 -42 90 -21 45 12 80 15 106 10 21 -4 77 -7 124 -8 92 -1 88 -3 161
79 55 61 101 96 115 84 13 -10 22 12 39 93 8 40 57 91 101 107 52 18 78 37 65
46 -6 3 -11 1 -11 -5 0 -6 -4 -8 -10 -5 -5 3 -22 -2 -37 -11 l-28 -17 25 25
c14 13 36 27 49 31 27 7 53 -1 45 -14 -8 -14 9 -11 50 11 30 15 35 21 23 26
-10 3 -17 12 -17 19 0 7 -7 18 -15 25 -11 9 -12 16 -5 25 6 7 7 20 4 30 -4 10
-1 21 7 25 7 5 13 21 14 37 0 22 5 28 24 28 30 0 53 32 31 45 -9 5 -19 5 -27
-2 -9 -7 -13 -7 -13 0 0 16 36 33 54 26 21 -8 21 23 -1 121 -18 84 -19 84 -98
60 -50 -15 -65 -13 -65 9 0 7 14 12 33 13 17 0 47 1 65 2 22 1 32 6 32 16 0 9
7 18 15 21 15 6 20 51 7 69 -9 12 -52 18 -52 7 0 -5 -13 -9 -30 -9 -16 0 -30
5 -30 11 0 5 -6 2 -13 -9 -12 -15 -15 9 -20 165 -3 100 -9 185 -13 189 -3 3
-13 -4 -21 -16 -21 -31 -78 -32 -86 -3 -3 13 -11 18 -20 14 -10 -3 -21 3 -29
15 -26 42 -35 24 -30 -59 3 -52 1 -80 -6 -80 -6 0 -10 21 -10 46 0 88 -12 57
-14 -37 -6 -231 -6 -230 25 -245 21 -12 27 -21 27 -49 0 -55 -42 -43 -53 15
-2 14 -5 -10 -6 -52 -1 -65 -4 -79 -20 -88 -11 -5 -23 -10 -27 -10 -7 0 1 112
11 145 6 20 6 20 -7 0 -24 -36 -93 -95 -135 -116 -53 -26 -79 -22 -77 11 1 14
3 49 5 78 l3 52 -92 4 c-80 4 -95 7 -126 31 -20 15 -36 31 -36 36 0 5 59 10
132 11 l132 3 3 145 c2 94 0 138 -6 125 -9 -19 -10 -19 -10 2 -1 12 -5 25 -11
28 -10 6 -15 -13 -12 -47 1 -10 -3 -18 -8 -18 -6 0 -10 10 -10 23 0 31 -9 38
-32 26 -13 -7 -22 -6 -32 4 -19 19 -7 34 32 40 58 9 46 14 -50 21 -51 4 -102
10 -113 13 -17 5 -18 4 -6 -10 7 -9 18 -14 25 -10 6 4 5 0 -2 -9 -7 -9 -15
-29 -16 -45 -3 -23 -8 -28 -32 -29 -38 -2 -65 -14 -58 -25 3 -5 -2 -9 -10 -9
-9 0 -16 12 -19 33 -4 30 -4 30 -6 -8 -1 -22 -6 -58 -10 -80 l-7 -40 -26 55
c-15 32 -29 83 -33 122 -4 39 -12 69 -20 72 -7 2 -16 21 -20 42 -5 30 -3 41
11 51 16 12 15 13 -13 13 -35 0 -51 16 -34 33 16 16 14 54 -4 61 -11 4 -15 23
-15 77 0 59 -5 80 -25 114 -25 43 -58 61 -89 49 -19 -7 -19 -9 -6 -32 5 -9 12
-43 15 -75 5 -39 13 -65 27 -79 16 -16 19 -29 15 -60 -7 -48 -15 -59 -29 -34
-8 14 -12 15 -18 5 -6 -9 -19 -2 -49 28 -40 40 -41 42 -41 112 0 39 6 86 13
104 8 18 12 38 10 45 -3 7 4 12 17 12 13 0 19 4 14 11 -5 8 -1 8 14 0 15 -8
32 -6 71 8 51 18 54 27 11 44 -8 3 5 5 30 4 40 -2 45 -4 42 -24 -2 -14 4 -26
17 -33 23 -12 28 -1 9 18 -9 9 -9 15 0 24 9 9 12 9 12 -1 0 -8 7 -10 20 -6 13
4 22 1 26 -9 5 -14 9 -13 31 4 26 20 73 27 87 13 4 -5 69 -9 144 -10 75 -1
148 -6 162 -11 19 -7 28 -6 36 6 11 14 22 15 105 3 52 -7 96 -15 98 -17 2 -2
5 -36 7 -76 2 -63 12 -126 40 -239 4 -20 11 -25 25 -22 10 3 19 12 19 19 0 13
10 17 28 12 4 -2 7 -10 7 -18 0 -16 40 -40 68 -40 9 0 17 7 17 15 0 20 17 19
29 -2 8 -14 11 -15 11 -3 1 24 36 60 58 60 11 0 19 6 19 13 -1 6 2 33 7 58 6
35 4 54 -7 75 l-16 29 -15 -36 c-8 -20 -13 -45 -10 -56 3 -11 -1 -25 -10 -32
-14 -12 -16 -7 -15 43 1 31 6 59 11 62 5 3 2 11 -8 18 -14 11 -16 28 -12 121
2 73 8 110 16 113 7 2 12 8 12 13 0 5 9 18 20 29 39 39 14 57 -27 19 -18 -18
-25 -20 -38 -9 -8 7 -15 20 -15 29 -1 13 -3 13 -15 -3 -23 -31 -18 -6 11 48
14 26 23 50 20 53 -7 7 -66 -77 -67 -96 0 -10 -2 -12 -6 -3 -9 23 -21 12 -25
-25 -6 -43 0 -66 13 -57 11 6 5 -168 -5 -185 -4 -6 -16 -11 -28 -11 -19 0 -20
4 -14 101 4 56 9 107 13 113 4 6 -1 5 -10 -3 -15 -12 -17 -12 -11 3 3 9 1 16
-5 16 -7 0 -10 12 -9 26 2 15 -2 29 -8 31 -7 2 -12 -2 -11 -9 2 -46 -5 -75
-16 -75 -11 0 -12 11 -2 59 12 57 12 58 -8 52 -14 -5 -19 -3 -15 7 9 23 -7 52
-30 56 -21 3 -22 -1 -22 -77 0 -88 -13 -104 -31 -37 -6 23 -23 70 -37 104 -26
60 -28 63 -63 63 -19 0 -40 -5 -47 -12 -9 -9 -24 -8 -65 1 -32 7 -80 9 -124 5
-88 -8 -123 -1 -123 26 0 16 6 20 33 18 17 -1 55 2 82 7 28 5 81 8 119 6 43
-1 79 3 94 11 21 11 26 10 42 -9 17 -22 17 -19 14 73 l-3 96 -40 31 c-47 36
-57 59 -66 149 -6 63 -8 68 -28 63 -12 -3 -44 -7 -72 -9 -34 -2 -65 -12 -95
-31 l-45 -28 23 26 c13 14 44 31 68 38 24 8 43 18 41 24 -2 5 3 16 12 23 14
12 11 13 -16 8 -37 -6 -45 8 -10 18 18 5 20 8 7 16 -13 9 -13 11 0 20 11 7 6
10 -22 10 -20 0 -40 -4 -43 -10 -9 -15 -45 -12 -45 4 0 17 26 45 43 47 7 1 17
2 22 3 6 1 31 6 57 10 40 7 48 12 52 35 3 14 4 40 1 56 -7 51 -7 269 0 298 11
43 2 32 -31 -38z m-399 -346 c0 -8 13 -28 28 -44 15 -17 27 -39 27 -51 0 -12
8 -41 19 -65 19 -44 19 -119 0 -119 -10 0 -12 -175 -3 -230 5 -29 11 -36 32
-38 28 -2 62 -28 62 -47 0 -7 -20 -16 -45 -19 -25 -4 -45 -12 -45 -17 0 -6 3
-8 8 -6 4 3 8 -50 10 -116 1 -67 3 -135 5 -152 2 -34 10 -33 -142 -19 -71 6
-74 8 -94 42 -12 20 -20 47 -18 60 1 14 -1 22 -7 18 -11 -7 -34 49 -24 58 3 4
11 -6 18 -21 11 -25 12 -19 13 58 1 54 -4 91 -11 101 -16 21 -82 38 -129 33
-31 -3 -38 1 -48 21 -15 34 -14 37 9 31 13 -3 20 0 20 10 0 18 23 11 83 -23
23 -13 44 -24 48 -24 3 0 5 67 6 150 l0 150 -68 -6 -67 -7 -19 40 c-16 32 -17
41 -6 51 18 18 16 32 -4 33 -14 0 -12 3 5 9 13 6 49 8 82 7 79 -4 97 4 106 47
4 26 11 36 25 36 11 0 36 16 57 35 38 36 67 42 67 14z m63 -11 c-6 -18 -28
-21 -28 -4 0 9 7 16 16 16 9 0 14 -5 12 -12z m92 -184 c0 -22 -2 -25 -15 -14
-8 7 -15 19 -15 26 0 8 7 14 15 14 10 0 15 -10 15 -26z m290 -50 c0 -16 -16
-19 -25 -4 -8 13 4 32 16 25 5 -4 9 -13 9 -21z m-224 -26 c-23 -32 -20 -75 4
-88 23 -12 27 -30 6 -30 -38 0 -51 71 -21 116 8 13 18 24 21 24 3 0 -2 -10
-10 -22z m144 -7 c0 -8 -59 -31 -78 -31 -9 0 -9 5 0 19 10 16 15 18 27 8 11
-9 16 -8 24 5 10 16 27 15 27 -1z m-860 0 c0 -5 -7 -14 -15 -21 -12 -10 -15
-10 -15 2 0 8 3 18 7 21 9 10 23 9 23 -2z m50 -78 c0 -7 -7 -10 -15 -7 -8 4
-15 12 -15 20 0 8 -6 11 -15 8 -18 -7 -19 2 -2 21 10 11 15 10 29 -8 10 -12
18 -27 18 -34z m209 -260 c1 -10 2 -29 3 -43 5 -41 -16 -38 -26 3 -8 30 -7 40
5 48 18 11 18 12 18 -8z m-189 -88 c0 -5 -5 -3 -10 5 -5 8 -10 20 -10 25 0 6
5 3 10 -5 5 -8 10 -19 10 -25z m46 3 c28 -30 17 -30 -18 0 -16 13 -24 32 -15
32 2 0 16 -14 33 -32z m979 12 c3 -5 1 -10 -4 -10 -6 0 -11 5 -11 10 0 6 2 10
4 10 3 0 8 -4 11 -10z m-806 -26 c-14 -18 -24 -11 -15 11 3 9 11 13 16 10 8
-5 7 -11 -1 -21z m742 -16 c8 -16 8 -19 -2 -16 -6 2 -16 14 -20 27 -11 27 6
19 22 -11z m-421 -58 c0 -16 -2 -30 -4 -30 -2 0 -6 14 -8 30 -3 17 -1 30 4 30
4 0 8 -13 8 -30z m430 5 c0 -8 6 -15 13 -15 8 0 7 -3 -3 -10 -17 -11 -19 -9
-25 19 -2 11 0 21 6 21 5 0 9 -7 9 -15z m100 -19 c0 -7 13 -45 29 -85 l30 -71
-24 0 c-30 0 -39 14 -26 38 6 11 7 23 2 28 -7 8 -31 83 -31 98 0 3 5 6 10 6 6
0 10 -6 10 -14z m-190 -36 c0 -5 -4 -10 -10 -10 -5 0 -10 5 -10 10 0 6 5 10
10 10 6 0 10 -4 10 -10z m510 -60 c0 -19 -5 -42 -10 -50 -7 -11 -10 4 -10 50
0 46 3 61 10 50 5 -8 10 -31 10 -50z m-340 18 c0 -19 -2 -20 -10 -8 -13 19
-13 30 0 30 6 0 10 -10 10 -22z m-105 -60 c6 -4 2 -8 -7 -8 -10 0 -18 7 -18
17 0 9 3 12 8 7 4 -5 12 -12 17 -16z m275 18 c0 -3 -4 -8 -10 -11 -5 -3 -10
-1 -10 4 0 6 5 11 10 11 6 0 10 -2 10 -4z m-165 -16 c3 -5 1 -10 -4 -10 -6 0
-11 5 -11 10 0 6 2 10 4 10 3 0 8 -4 11 -10z m155 -32 c0 -18 -2 -20 -9 -8 -6
8 -7 18 -5 22 9 14 14 9 14 -14z m179 -107 c1 -52 -12 -28 -15 27 -1 33 0 41
6 27 5 -11 9 -35 9 -54z m-5 -78 c-10 -40 -14 -41 -14 -5 0 18 5 32 10 32 6 0
8 -11 4 -27z m-1064 -42 c0 -6 -4 -13 -10 -16 -5 -3 -10 1 -10 9 0 9 5 16 10
16 6 0 10 -4 10 -9z m1060 -61 l-8 -35 -1 45 c-1 27 3 40 8 35 6 -6 6 -25 1
-45z m-990 -41 c0 -4 -5 -20 -12 -36 l-11 -28 -7 45 c-4 25 -5 49 -2 54 5 9
32 -21 32 -35z m-209 -11 c32 -37 32 -37 20 -57 -11 -18 -54 -5 -47 15 3 8 -1
14 -11 14 -12 0 -13 3 -4 14 8 10 9 16 1 21 -5 3 -10 10 -10 16 0 19 23 8 51
-23z m-46 -48 c8 -13 -5 -13 -25 0 -13 8 -13 10 2 10 9 0 20 -4 23 -10z m200
-20 c19 -21 34 -150 17 -150 -5 0 -20 8 -33 19 -22 17 -24 25 -21 85 2 36 7
66 11 66 4 0 16 -9 26 -20z m-343 -9 c38 -14 100 -23 95 -14 -3 5 11 6 31 4
l37 -6 -32 -3 c-18 -2 -33 -6 -33 -10 -1 -4 -11 -19 -23 -34 l-22 -27 -73 19
c-78 21 -105 35 -130 71 l-15 22 71 -6 c39 -4 81 -11 94 -16z m243 9 c3 -5 -1
-10 -9 -10 -9 0 -16 5 -16 10 0 6 4 10 9 10 6 0 13 -4 16 -10z m-58 -76 c7 -7
13 -19 13 -27 0 -9 11 -14 29 -15 43 -1 78 -23 157 -99 59 -56 70 -73 68 -95
-2 -17 2 -28 9 -28 7 0 17 -9 22 -19 21 -42 78 -136 85 -141 4 -3 10 -15 14
-27 4 -13 14 -23 22 -23 21 0 17 -19 -8 -40 -21 -16 -21 -18 -5 -34 9 -10 17
-23 17 -29 0 -7 9 -23 20 -37 25 -32 27 -73 3 -68 -11 2 -20 18 -25 42 -6 29
-23 54 -61 91 -28 27 -81 92 -117 143 -36 51 -72 99 -80 107 -48 43 -150 124
-182 143 -97 60 -127 149 -58 174 20 8 62 -2 77 -18z m-112 -89 c27 -36 51
-65 54 -65 3 -1 20 -12 36 -26 28 -23 24 -22 -52 10 -110 47 -125 55 -117 68
4 5 0 14 -7 19 -11 7 -11 9 2 9 17 0 34 28 24 38 -3 3 -5 0 -5 -7 0 -7 -5 -9
-11 -5 -8 4 -7 9 2 15 22 14 24 12 74 -56z m-145 24 c0 -11 -4 -17 -10 -14 -5
3 -10 13 -10 21 0 8 5 14 10 14 6 0 10 -9 10 -21z m520 -39 c0 -5 -4 -10 -10
-10 -5 0 -10 5 -10 10 0 6 5 10 10 10 6 0 10 -4 10 -10z m-528 -13 c13 -14
138 -67 156 -67 19 0 173 -77 171 -86 -1 -5 8 -13 20 -19 11 -5 21 -17 21 -26
0 -19 46 -64 65 -64 8 0 47 -45 87 -100 39 -55 75 -102 79 -105 8 -7 29 -47
29 -57 0 -6 -121 -9 -177 -4 -7 0 -20 18 -29 39 -10 20 -56 76 -104 123 -71
70 -97 89 -141 103 -30 10 -79 32 -109 50 -30 17 -75 40 -100 50 -106 42 -136
95 -85 150 18 20 34 26 64 26 22 0 46 -6 53 -13z m1335 -64 c-3 -10 -5 -2 -5
17 0 19 2 27 5 18 2 -10 2 -26 0 -35z m-577 12 c0 -8 -8 -15 -17 -15 -14 0
-15 -2 -4 -9 7 -5 10 -14 6 -20 -5 -9 -11 -9 -23 1 -13 11 -14 11 -7 -2 8 -13
6 -13 -7 -2 -19 15 -13 42 8 42 8 0 14 5 14 10 0 6 7 10 15 10 8 0 15 -7 15
-15z m652 -32 c1 -27 2 -67 2 -90 -1 -30 3 -43 13 -43 17 0 19 22 8 110 -5 43
-4 52 5 43 27 -25 38 -182 21 -268 -9 -43 -12 -33 -15 50 -1 28 -5 40 -16 40
-8 0 -14 -6 -12 -13 1 -7 -2 -21 -8 -31 -7 -15 -6 -20 7 -25 12 -5 14 -9 5
-18 -15 -15 -15 -51 0 -66 9 -9 5 -17 -16 -37 -32 -29 -36 -30 -36 -9 0 11 -6
14 -20 9 -13 -4 -20 -2 -21 7 -1 7 -2 20 -3 28 -2 22 14 51 25 45 5 -4 9 -15
9 -26 0 -10 5 -19 10 -19 6 0 10 67 10 180 0 153 2 180 15 180 11 0 16 -13 17
-47z m-63 -155 c0 -49 -2 -88 -7 -88 -4 0 -8 53 -8 118 0 64 3 104 7 87 4 -16
7 -69 8 -117z m-349 104 c0 -4 -9 -8 -20 -8 -11 0 -20 4 -20 8 0 4 9 8 20 8
11 0 20 -4 20 -8z m290 -22 c0 -16 -4 -30 -10 -30 -5 0 -10 14 -10 30 0 17 5
30 10 30 6 0 10 -13 10 -30z m-290 -50 c0 -6 -4 -10 -10 -10 -5 0 -10 5 -10
11 0 5 -5 7 -10 4 -8 -5 -8 -11 -1 -19 8 -9 6 -18 -4 -32 -15 -18 -15 -16 -13
21 1 22 3 43 5 48 5 9 43 -11 43 -23z m299 -105 c0 -5 -6 -1 -14 9 -8 10 -11
24 -8 29 6 10 21 -16 22 -38z m121 -160 c0 -16 -6 -25 -15 -25 -18 0 -18 5 -5
31 14 26 20 24 20 -6z m-849 -95 c20 -6 44 -18 53 -29 16 -17 15 -19 -25 -24
-31 -4 -53 0 -80 14 -21 10 -48 19 -61 19 -28 0 -12 17 22 23 43 8 54 7 91 -3z
m356 -48 c30 -37 32 -38 93 -36 41 2 59 -1 52 -8 -5 -5 -36 -11 -68 -12 -33
-2 -71 -6 -85 -10 -22 -6 -30 -3 -48 23 -13 17 -31 31 -42 31 -27 0 -24 12 9
32 40 26 55 22 89 -20z m-497 24 c0 -2 -7 -7 -16 -10 -8 -3 -12 -2 -9 4 6 10
25 14 25 6z m776 -17 c4 -7 22 -9 50 -4 27 4 44 2 44 -4 0 -12 -70 -22 -131
-19 -31 2 -45 7 -42 15 8 21 68 30 79 12z m167 -33 c19 -36 19 -44 8 -100 -13
-63 -75 -234 -91 -250 -5 -5 -14 2 -21 17 -10 21 -9 36 1 69 20 68 38 161 46
238 8 83 24 90 57 26z m190 37 c-7 -2 -19 -2 -25 0 -7 3 -2 5 12 5 14 0 19 -2
13 -5z m-783 -78 c0 -10 -55 -95 -62 -95 -9 0 1 24 27 67 17 29 35 43 35 28z
m-65 -347 c-1 -147 -11 -218 -30 -218 -4 0 -4 4 -1 8 2 4 1 14 -4 22 -7 11
-11 11 -24 1 -14 -12 -16 -7 -16 45 1 93 18 194 45 251 13 29 26 53 28 53 2 0
3 -73 2 -162z m332 106 c-3 -3 -12 -4 -19 -1 -8 3 -5 6 6 6 11 1 17 -2 13 -5z
m-136 -27 c-1 -4 -1 -14 -1 -22 0 -8 -3 -15 -7 -15 -5 0 -8 11 -8 25 0 14 4
24 8 22 5 -1 8 -6 8 -10z m39 -91 c0 -3 -4 -8 -10 -11 -5 -3 -10 -1 -10 4 0 6
5 11 10 11 6 0 10 -2 10 -4z m50 -196 c0 -5 -5 -10 -11 -10 -5 0 -7 5 -4 10 3
6 8 10 11 10 2 0 4 -4 4 -10z m-40 -60 c-8 -6 -22 -10 -30 -10 -8 0 -4 6 10
13 27 15 44 12 20 -3z m-55 -29 c-3 -6 -11 -11 -17 -11 -6 0 -6 6 2 15 14 17
26 13 15 -4z"/>
<path d="M2085 3560 c-3 -5 -2 -10 4 -10 5 0 13 5 16 10 3 6 2 10 -4 10 -5 0
-13 -4 -16 -10z"/>
<path d="M2012 3470 c0 -14 2 -19 5 -12 2 6 2 18 0 25 -3 6 -5 1 -5 -13z"/>
<path d="M1940 2270 c0 -5 4 -10 9 -10 6 0 13 5 16 10 3 6 -1 10 -9 10 -9 0
-16 -4 -16 -10z"/>
<path d="M3523 3622 c-18 -22 -61 -58 -95 -81 -35 -23 -59 -41 -55 -41 29 0
192 131 185 150 -2 6 -18 -6 -35 -28z"/>
<path d="M3586 3628 c-9 -12 -16 -28 -16 -35 0 -7 -4 -13 -8 -13 -4 0 -18 -20
-30 -45 -12 -25 -19 -45 -16 -45 13 0 54 46 54 60 0 9 9 33 20 55 22 44 20 58
-4 23z"/>
<path d="M4490 3624 c0 -20 34 -36 66 -31 20 3 49 0 69 -9 43 -18 69 -18 35
-1 -38 20 -170 52 -170 41z"/>
<path d="M3822 3604 c10 -10 20 -15 24 -12 3 4 -5 12 -18 18 -22 12 -22 12 -6
-6z"/>
<path d="M4698 3519 c3 -25 7 -36 12 -29 11 18 32 2 25 -19 -4 -13 0 -17 17
-16 12 1 23 6 25 11 3 9 -68 94 -78 94 -2 0 -3 -19 -1 -41z"/>
<path d="M3524 3442 c-22 -19 -70 -125 -65 -146 1 -4 -4 -14 -10 -22 -12 -15
-2 -18 25 -8 12 5 13 10 5 26 -12 22 4 50 25 42 23 -9 56 35 56 76 0 46 -9 54
-36 32z"/>
<path d="M4672 3401 c-7 -21 -12 -50 -12 -65 0 -14 -4 -26 -8 -26 -5 0 -19
-39 -31 -87 -12 -49 -28 -104 -36 -123 -7 -19 -16 -64 -19 -100 -9 -113 -17
-164 -33 -205 -8 -22 -17 -49 -19 -60 -5 -19 -5 -19 6 -2 9 14 15 15 25 7 9
-8 24 -8 47 -2 18 5 39 7 45 5 7 -3 16 3 19 12 5 13 9 14 15 3 7 -10 14 -10
40 -1 43 17 48 9 13 -21 -37 -33 -28 -33 16 -1 24 17 47 25 76 25 40 0 43 2
54 35 6 19 9 43 7 52 -4 14 -5 13 -6 -4 0 -13 -5 -23 -11 -23 -6 0 -10 50 -10
130 0 80 -4 130 -10 130 -5 0 -10 24 -10 54 0 30 -4 58 -10 61 -5 3 -10 36
-10 73 0 61 -3 70 -28 92 -15 14 -34 34 -42 46 -8 12 -24 24 -36 28 -18 5 -23
0 -32 -33z m88 -36 c15 -18 1 -39 -42 -61 -34 -17 -34 -13 -6 37 24 43 30 46
48 24z m-99 -235 c-7 -4 -10 -19 -7 -33 2 -15 1 -41 -4 -59 -10 -32 -58 -108
-69 -108 -3 0 -4 33 -1 73 5 69 7 76 45 116 22 23 41 37 44 30 2 -6 -2 -15 -8
-19z"/>
<path d="M4620 3019 c0 -5 5 -7 10 -4 6 3 10 8 10 11 0 2 -4 4 -10 4 -5 0 -10
-5 -10 -11z"/>
<path d="M4768 3402 c9 -10 19 -17 21 -16 6 5 -20 34 -30 34 -5 0 -1 -8 9 -18z"/>
<path d="M3047 3315 c-28 -26 -35 -45 -17 -45 6 0 10 6 10 14 0 21 23 25 43 8
24 -22 31 -10 7 15 -10 12 -16 24 -13 27 19 18 -6 2 -30 -19z"/>
<path d="M2978 3262 c-5 -16 4 -25 43 -46 27 -14 49 -24 49 -23 0 2 -20 22
-44 46 -39 38 -44 40 -48 23z"/>
<path d="M3354 3206 c-21 -18 -24 -25 -13 -26 17 0 56 37 47 46 -3 3 -19 -6
-34 -20z"/>
<path d="M2830 3191 c0 -5 4 -12 9 -15 5 -4 15 -39 21 -79 14 -84 16 -88 36
-80 13 5 13 7 0 17 -8 6 -18 31 -21 56 l-6 45 41 -45 c22 -24 38 -50 36 -57
-3 -7 8 -20 24 -28 33 -17 65 -21 40 -5 -12 7 -12 12 -3 21 10 10 21 8 54 -10
22 -13 42 -21 45 -19 5 6 -82 61 -121 77 -32 12 -115 86 -115 102 0 4 -9 13
-20 19 -12 7 -20 7 -20 1z"/>
<path d="M3400 3179 c0 -5 5 -7 10 -4 6 3 10 8 10 11 0 2 -4 4 -10 4 -5 0 -10
-5 -10 -11z"/>
<path d="M3400 3138 c0 -7 -3 -24 -7 -38 -6 -22 -5 -24 10 -11 18 15 23 61 7
61 -5 0 -10 -6 -10 -12z"/>
<path d="M3259 3113 c-13 -16 -12 -17 4 -4 16 13 21 21 13 21 -2 0 -10 -8 -17
-17z"/>
<path d="M4952 3089 c3 -13 13 -56 21 -95 9 -39 19 -97 22 -130 3 -32 10 -75
16 -94 5 -19 9 -66 10 -105 1 -67 1 -68 11 -30 5 22 7 68 4 102 -5 45 -3 62 6
65 8 3 12 20 12 44 -2 51 -51 207 -70 217 -8 4 -14 14 -14 22 0 8 -5 17 -11
21 -8 5 -10 -1 -7 -17z"/>
<path d="M3190 3055 c0 -18 19 -40 26 -32 4 4 0 15 -9 24 -9 10 -17 13 -17 8z"/>
<path d="M3335 3001 c-3 -5 -1 -12 5 -16 5 -3 10 1 10 9 0 18 -6 21 -15 7z"/>
<path d="M3175 2970 c-16 -17 -16 -20 -3 -15 9 4 19 13 22 21 7 19 2 18 -19
-6z"/>
<path d="M3297 2973 c-4 -3 -7 -11 -7 -17 0 -6 5 -5 12 2 6 6 9 14 7 17 -3 3
-9 2 -12 -2z"/>
<path d="M3800 2959 c-36 -3 -53 -6 -38 -7 43 -3 55 -11 51 -35 -3 -16 -20
-30 -55 -46 -33 -15 -46 -26 -38 -31 9 -6 9 -9 0 -15 -8 -5 -1 -14 20 -27 26
-15 35 -16 47 -7 12 10 16 10 24 -2 7 -11 9 -11 9 4 0 9 9 26 20 37 11 11 20
25 20 30 0 6 7 10 15 10 23 0 55 37 48 56 -5 15 -4 15 20 -1 19 -12 27 -13 27
-5 0 7 6 10 13 7 8 -3 20 -1 28 4 10 6 16 3 21 -9 4 -12 7 -7 7 15 l1 32 -87
-2 c-49 -1 -117 -5 -153 -8z"/>
<path d="M3177 2894 c-16 -9 -26 -18 -23 -21 7 -8 66 17 66 28 0 12 -10 11
-43 -7z"/>
<path d="M4415 2720 c-48 -96 -57 -130 -24 -90 14 16 19 19 15 8 -3 -10 -2
-18 2 -18 15 0 32 40 41 97 5 32 12 66 16 76 4 9 4 17 1 17 -3 0 -26 -40 -51
-90z"/>
<path d="M2601 2634 c0 -11 3 -14 6 -6 3 7 2 16 -1 19 -3 4 -6 -2 -5 -13z"/>
<path d="M4580 2629 c-22 -18 -22 -19 -3 -10 12 6 25 16 28 21 9 15 3 12 -25
-11z"/>
<path d="M4150 2609 c0 -5 5 -7 10 -4 6 3 10 8 10 11 0 2 -4 4 -10 4 -5 0 -10
-5 -10 -11z"/>
<path d="M3437 2539 c9 -77 9 -134 0 -171 -6 -24 -4 -28 13 -28 28 0 36 3 32
15 -2 5 -5 21 -7 35 -2 14 -8 50 -14 80 -5 30 -7 67 -5 82 1 15 -4 32 -12 39
-14 11 -14 5 -7 -52z"/>
<path d="M5061 2591 c-8 -5 -20 -7 -28 -4 -11 4 -14 -6 -12 -53 2 -61 17 -123
18 -76 1 12 6 22 11 22 6 0 10 7 10 15 0 8 4 15 9 15 4 0 11 -33 15 -72 3 -40
9 -86 12 -102 6 -23 4 -27 -7 -22 -8 4 -7 2 2 -6 26 -21 38 -52 43 -109 3 -29
18 -103 33 -163 27 -108 28 -110 31 -62 3 51 -20 177 -43 233 -13 31 -32 133
-56 306 -7 48 -15 87 -18 87 -3 0 -12 -4 -20 -9z"/>
<path d="M3968 2573 c7 -3 16 -2 19 1 4 3 -2 6 -13 5 -11 0 -14 -3 -6 -6z"/>
<path d="M2243 2548 c20 -18 27 -33 27 -61 0 -53 20 -46 22 8 0 25 1 51 2 58
1 7 -15 13 -39 15 l-40 3 28 -23z"/>
<path d="M3589 2556 c12 -15 91 -18 91 -4 0 4 -6 8 -12 9 -7 1 -30 3 -51 4
-31 3 -36 1 -28 -9z"/>
<path d="M3700 2560 c8 -5 22 -10 30 -10 13 0 13 1 0 10 -8 5 -22 10 -30 10
-13 0 -13 -1 0 -10z"/>
<path d="M4288 2546 c-9 -9 -24 -13 -32 -10 -11 4 -16 0 -17 -12 -1 -11 -2
-28 -3 -39 -1 -11 -3 -30 -4 -42 -1 -13 -8 -22 -14 -20 -10 1 -14 -21 -15 -83
-1 -47 -2 -91 -2 -97 -1 -7 -9 -13 -20 -13 -14 0 -20 -9 -23 -38 -3 -21 -17
-62 -30 -92 -13 -30 -31 -70 -38 -89 -14 -35 -54 -81 -70 -81 -5 0 -7 7 -4 15
7 18 -22 21 -30 3 -3 -7 -3 -3 -1 9 7 25 -13 42 -26 22 -4 -8 -14 -14 -21 -14
-8 0 -16 -22 -21 -60 -12 -84 -29 -137 -47 -145 -8 -4 -25 -12 -37 -18 -32
-17 -33 -16 -22 20 5 18 9 58 8 88 -1 39 -3 48 -8 30 -7 -24 -7 -24 -19 -5
-10 17 -11 18 -12 3 0 -10 -4 -18 -10 -18 -5 0 -10 -7 -10 -15 0 -20 -16 -19
-24 2 -6 15 -9 15 -16 3 -7 -12 -12 -11 -29 4 -17 16 -23 17 -36 6 -13 -11
-14 -10 -9 4 4 10 1 16 -9 16 -9 0 -17 14 -21 35 -4 19 -11 35 -16 35 -15 0
-12 -33 6 -75 8 -20 13 -40 10 -43 -3 -3 -6 0 -6 7 0 7 -4 9 -10 6 -5 -3 -10
-15 -10 -25 0 -28 -46 -56 -64 -40 -8 6 -12 19 -9 27 4 11 2 14 -5 9 -7 -4
-12 -18 -12 -32 0 -13 -4 -24 -10 -24 -5 0 -9 19 -8 43 0 24 -3 53 -6 65 -5
13 -3 22 3 22 13 0 -5 51 -20 61 -9 5 -13 83 -7 134 2 14 -4 21 -19 23 -26 4
-26 4 -48 -162 -9 -66 -18 -123 -20 -126 -3 -4 -7 -38 -10 -75 -3 -37 -8 -72
-11 -77 -3 -5 2 -15 11 -22 16 -11 27 -38 77 -179 13 -34 26 -56 34 -55 7 2
26 -11 41 -29 24 -27 33 -30 65 -26 21 3 49 16 63 29 27 25 41 31 30 15 -3 -6
8 -6 27 0 18 6 42 13 53 17 11 3 28 13 38 23 11 10 25 15 32 12 18 -6 35 -57
26 -72 -4 -6 3 -34 16 -61 32 -66 41 -135 19 -143 -12 -5 -23 6 -41 41 -15 26
-23 36 -20 22 11 -45 10 -52 -7 -63 -14 -9 -21 -6 -38 13 l-22 25 7 -26 c7
-30 -12 -50 -26 -28 -7 12 -9 11 -10 -1 -1 -8 -1 -19 0 -24 1 -5 -5 -4 -13 3
-8 7 -20 10 -26 6 -7 -4 -14 2 -17 15 -5 21 -7 20 -19 -10 -11 -24 -19 -31
-33 -27 -15 3 -18 1 -14 -11 5 -12 1 -14 -15 -10 -15 4 -19 2 -15 -8 3 -9 -1
-14 -12 -14 -20 0 -16 -26 17 -130 11 -36 22 -71 24 -77 4 -15 44 -18 44 -3 0
6 -5 19 -12 29 -9 15 -9 23 2 35 12 15 15 15 30 1 15 -14 21 -14 60 0 62 22
69 20 125 -34 33 -32 62 -50 85 -54 l35 -6 -40 20 c-42 22 -105 77 -105 92 0
5 17 -5 38 -21 67 -53 142 -80 142 -52 0 6 -7 10 -15 10 -35 0 -157 82 -138
93 8 5 69 -32 168 -100 21 -16 65 -42 96 -60 l57 -32 108 45 c125 52 182 85
279 162 96 77 91 72 80 80 -6 4 -16 15 -24 25 -13 17 -11 17 28 11 50 -8 74 9
92 65 6 20 20 50 30 66 16 27 25 54 43 135 4 14 4 19 0 13 -8 -18 -25 -16 -18
2 8 20 -16 19 -31 -1 -11 -15 -12 -14 -11 6 1 20 -9 26 -69 46 -38 13 -72 24
-75 24 -18 1 30 20 53 20 33 0 107 22 107 32 0 3 -16 2 -36 -4 -20 -5 -86 -14
-147 -19 -62 -5 -128 -11 -147 -14 -19 -2 -40 -4 -45 -4 -10 -1 -45 -102 -45
-130 0 -7 -9 -11 -22 -9 -18 2 -25 13 -34 53 -13 58 1 108 38 134 31 22 107
49 142 50 23 1 26 -1 17 -13 -8 -10 -1 -9 24 4 43 22 88 67 80 81 -4 5 -2 9 4
9 5 0 12 -4 16 -10 3 -5 23 -7 45 -5 22 2 40 0 40 -5 0 -5 19 -3 41 5 54 20
59 19 59 -7 0 -20 1 -20 19 -4 17 15 20 15 34 1 9 -8 18 -11 21 -6 3 5 15 7
26 4 11 -3 17 -9 14 -14 -3 -5 -2 -15 2 -21 6 -9 10 -5 15 12 14 52 10 86 -16
110 -29 27 -50 128 -71 338 -4 34 -10 62 -15 62 -12 0 -221 -40 -243 -47 -15
-4 -16 -7 -5 -14 8 -5 10 -9 5 -9 -5 0 -3 -7 4 -15 6 -8 9 -23 6 -33 -6 -17
-3 -19 21 -14 19 4 23 7 11 10 -10 2 -18 8 -18 13 0 16 29 22 44 10 10 -8 16
-9 21 -1 3 6 11 8 16 4 5 -3 6 -11 2 -17 -4 -7 -8 -16 -8 -22 0 -5 -9 -10 -20
-10 -13 0 -21 -8 -23 -23 l-4 -24 -23 22 c-19 17 -23 19 -28 6 -4 -9 -1 -13 6
-10 7 2 26 -9 44 -26 18 -16 37 -30 43 -30 6 0 8 -4 5 -10 -3 -5 1 -10 10 -10
14 0 14 -3 0 -30 -9 -17 -24 -30 -34 -30 -11 0 -21 -6 -24 -12 -3 -10 -9 -8
-24 5 -11 9 -23 14 -27 10 -4 -4 -4 0 0 10 3 10 1 17 -5 17 -6 0 -11 5 -11 11
0 5 5 7 11 3 8 -4 9 1 4 17 -10 34 -13 35 -31 13 -8 -10 -12 -13 -8 -5 5 10 0
12 -24 6 -19 -4 -33 -2 -38 6 -5 9 -2 10 9 6 11 -4 17 -1 17 8 0 8 6 15 13 15
6 1 1 10 -12 21 -13 11 -21 22 -18 26 4 3 13 0 22 -7 9 -8 15 -8 15 -2 0 6 -5
14 -10 17 -6 4 0 19 15 37 17 20 23 34 16 41 -13 13 -111 -2 -111 -18 0 -7 7
-51 15 -99 18 -100 11 -126 -30 -118 -29 5 -40 21 -49 77 -18 98 -28 135 -39
135 -17 0 -18 51 -1 67 8 8 15 26 15 41 1 15 2 61 4 102 1 41 5 103 10 138 4
34 3 62 -1 62 -5 0 -25 -19 -45 -42 -20 -24 -40 -40 -44 -37 -10 10 14 129 32
155 20 31 13 53 -9 30z m-108 -481 c11 -14 10 -75 -2 -75 -4 0 -8 -10 -8 -22
0 -27 -8 -19 -30 29 -16 37 -16 40 3 83 19 41 21 43 25 20 2 -14 8 -30 12 -35z
m633 2 c4 3 8 -2 9 -13 0 -10 3 -39 4 -64 2 -25 8 -79 12 -120 5 -44 5 -85 0
-100 l-9 -25 -21 25 c-11 14 -17 19 -13 13 3 -8 0 -13 -8 -13 -8 0 -17 7 -21
15 -3 8 -1 15 3 15 17 0 21 32 6 46 -8 9 -15 12 -15 8 0 -4 -3 -4 -7 0 -4 4 6
18 22 31 17 14 22 22 12 19 -13 -5 -16 -2 -11 10 3 9 2 16 -2 16 -5 0 -10 28
-12 61 -2 65 11 97 33 79 6 -5 15 -7 18 -3z m-526 -34 c-3 -10 -5 -4 -5 12 0
17 2 24 5 18 2 -7 2 -21 0 -30z m253 13 c0 -2 -7 -7 -16 -10 -8 -3 -12 -2 -9
4 6 10 25 14 25 6z m140 -9 c-27 -15 -36 -14 -25 2 3 6 16 11 28 11 21 0 21
-1 -3 -13z m-193 -39 c-16 -10 -21 -2 -13 19 6 15 9 15 16 3 6 -9 5 -17 -3
-22z m183 -49 c-11 -8 -12 -12 -2 -16 13 -5 17 -33 5 -33 -11 0 -32 48 -25 55
3 3 12 5 21 5 14 0 14 -2 1 -11z m43 -166 c-6 -15 -14 -16 -38 -7 -15 6 -15 8
1 25 12 14 19 15 29 6 7 -7 10 -18 8 -24z m-506 -8 c-9 -29 -15 -35 -38 -35
-15 0 -31 5 -34 10 -3 6 3 10 14 10 11 0 28 11 37 25 23 36 34 31 21 -10z
m270 15 c1 0 11 -19 22 -42 11 -24 30 -55 43 -70 29 -37 19 -44 -28 -16 -77
47 -132 117 -108 140 3 4 20 2 37 -3 18 -5 33 -9 34 -9z m-392 -10 c-3 -5 -11
-10 -16 -10 -6 0 -7 5 -4 10 3 6 11 10 16 10 6 0 7 -4 4 -10z m-542 -49 c26
-5 50 -4 53 0 7 12 44 11 44 -1 0 -5 -6 -10 -12 -10 -7 0 -26 -7 -43 -16 -20
-11 -49 -15 -90 -14 -33 2 -73 4 -89 4 -32 1 -44 19 -27 40 11 14 68 12 164
-3z m157 -1 c0 -5 -2 -10 -4 -10 -3 0 -8 5 -11 10 -3 6 -1 10 4 10 6 0 11 -4
11 -10z m233 -114 c43 -20 176 -45 179 -35 2 5 17 11 35 15 26 5 34 2 48 -20
33 -50 -3 -79 -69 -55 -23 8 -52 13 -64 11 l-24 -4 23 -24 c12 -13 31 -24 41
-24 12 0 18 -6 16 -17 -2 -13 5 -19 25 -21 28 -3 39 -22 12 -22 -8 0 -12 -6
-9 -14 3 -8 18 -13 37 -12 26 1 33 -3 35 -21 4 -29 -14 -54 -71 -98 -25 -19
-47 -45 -49 -57 -3 -26 -87 -71 -122 -66 -27 4 -71 85 -85 158 -6 30 -18 80
-27 110 -9 30 -20 78 -24 105 -4 28 -11 60 -15 72 -6 19 -3 22 32 26 21 2 40
4 41 5 2 1 18 -4 35 -12z m270 -139 c3 -8 1 -20 -4 -28 -8 -12 -10 -12 -19 1
-5 8 -10 21 -10 28 0 16 27 16 33 -1z m502 -57 c3 -5 -1 -10 -9 -10 -9 0 -16
5 -16 10 0 6 4 10 9 10 6 0 13 -4 16 -10z m25 -24 c0 -2 -7 -7 -16 -10 -8 -3
-12 -2 -9 4 6 10 25 14 25 6z m-355 -116 c0 -7 -5 -15 -11 -17 -15 -5 -66 45
-59 57 9 14 70 -21 70 -40z m-159 -38 c-8 -24 -35 -37 -49 -23 -12 12 0 30 27
41 26 10 30 7 22 -18z m-298 -262 c7 -11 8 -20 4 -20 -5 0 -17 9 -27 20 -14
15 -15 20 -4 20 8 0 20 -9 27 -20z"/>
<path d="M4805 1941 c-3 -5 -1 -12 5 -16 5 -3 10 1 10 9 0 18 -6 21 -15 7z"/>
<path d="M2493 2543 c9 -2 25 -2 35 0 9 3 1 5 -18 5 -19 0 -27 -2 -17 -5z"/>
<path d="M2570 2540 c0 -5 4 -10 9 -10 6 0 13 5 16 10 3 6 -1 10 -9 10 -9 0
-16 -4 -16 -10z"/>
<path d="M4797 2538 c-20 -6 -36 -15 -35 -22 2 -15 -29 -86 -39 -87 -4 -1 -23
-2 -42 -4 -18 -2 -36 -8 -40 -13 -4 -6 -12 -7 -20 -3 -7 5 -26 4 -42 -2 -21
-8 -27 -16 -23 -29 7 -24 -8 -23 -24 2 -16 26 -32 26 -25 0 3 -11 9 -17 14
-14 12 7 11 -7 0 -25 -8 -12 -12 -12 -25 -2 -14 12 -16 10 -16 -8 0 -11 -5
-21 -10 -21 -12 0 -9 32 3 41 10 7 11 37 2 66 -6 18 -2 25 19 33 14 5 26 15
26 21 0 6 -7 8 -16 5 -9 -3 -22 -6 -29 -6 -18 0 -33 -71 -45 -215 -5 -66 -10
-123 -10 -126 0 -3 22 2 49 10 32 10 52 23 57 36 3 11 7 23 9 28 1 4 3 10 4
14 0 4 6 2 12 -4 8 -8 8 -17 -1 -33 l-12 -23 63 7 c35 3 96 11 134 17 l70 11
-1 92 c-2 68 4 115 20 179 13 48 20 87 17 86 -3 -1 -23 -6 -44 -11z m-173
-147 c3 -4 -4 -17 -15 -27 -17 -15 -22 -16 -29 -4 -5 9 -5 19 2 27 12 15 34
17 42 4z m40 -16 c-4 -8 -10 -12 -15 -9 -11 6 -2 24 11 24 5 0 7 -7 4 -15z
m-4 -44 c0 -10 -45 -41 -60 -41 -5 0 -10 7 -10 16 0 11 6 14 20 9 14 -5 20 -2
20 9 0 9 7 16 15 16 8 0 15 -4 15 -9z"/>
<path d="M2358 2477 c-17 -33 6 -43 42 -17 34 24 33 33 -6 35 -16 0 -29 -7
-36 -18z"/>
<path d="M3637 2493 c-9 -8 12 -33 28 -33 11 0 61 -55 97 -109 15 -22 18 -23
18 -7 0 19 -69 120 -98 144 -17 13 -35 16 -45 5z"/>
<path d="M4592 2493 l-22 -4 22 -19 c25 -20 40 -18 32 4 -3 8 2 16 13 19 16 4
15 5 -2 4 -11 0 -30 -2 -43 -4z"/>
<path d="M3730 2473 c1 -27 21 -56 64 -93 21 -19 42 -43 46 -54 7 -16 9 -17 9
-4 1 9 -12 45 -28 80 -19 44 -36 67 -55 76 -35 16 -36 15 -36 -5z"/>
<path d="M2562 2437 c-1 -23 -5 -50 -8 -61 -4 -12 -2 -17 7 -14 17 6 27 46 21
86 -6 45 -16 40 -20 -11z"/>
<path d="M2640 2460 c0 -5 5 -10 11 -10 5 0 7 5 4 10 -3 6 -8 10 -11 10 -2 0
-4 -4 -4 -10z"/>
<path d="M4575 2461 c-3 -5 -1 -12 5 -16 5 -3 10 1 10 9 0 18 -6 21 -15 7z"/>
<path d="M2460 2445 c0 -20 -49 -64 -72 -65 -26 0 -31 -18 -8 -25 13 -4 31 0
46 10 13 9 28 13 33 10 5 -2 12 2 15 11 9 24 7 62 -4 69 -5 3 -10 -1 -10 -10z"/>
<path d="M4485 2430 c3 -5 8 -10 11 -10 2 0 4 5 4 10 0 6 -5 10 -11 10 -5 0
-7 -4 -4 -10z"/>
<path d="M4000 2420 c0 -13 41 -50 57 -50 19 0 16 13 -7 38 -21 23 -50 30 -50
12z"/>
<path d="M3690 2394 c0 -11 7 -29 16 -40 15 -18 15 -18 9 11 -8 37 -25 57 -25
29z"/>
<path d="M5047 2360 c7 -60 21 -93 34 -84 7 4 7 10 1 16 -6 6 -8 26 -5 44 4
26 2 34 -10 34 -9 0 -18 8 -21 18 -3 9 -2 -3 1 -28z"/>
<path d="M3930 2364 c0 -37 28 -64 68 -64 l36 0 -24 17 c-14 9 -37 27 -52 41
-26 24 -28 24 -28 6z"/>
<path d="M2615 2350 c-3 -5 -1 -10 4 -10 6 0 11 5 11 10 0 6 -2 10 -4 10 -3 0
-8 -4 -11 -10z"/>
<path d="M2567 2343 c-4 -3 -7 -13 -7 -22 1 -13 3 -13 11 2 11 19 8 33 -4 20z"/>
<path d="M1341 2324 c0 -11 3 -14 6 -6 3 7 2 16 -1 19 -3 4 -6 -2 -5 -13z"/>
<path d="M2445 2330 c-3 -5 1 -10 10 -10 9 0 13 5 10 10 -3 6 -8 10 -10 10 -2
0 -7 -4 -10 -10z"/>
<path d="M2352 2289 c2 -7 10 -15 17 -17 8 -3 12 1 9 9 -2 7 -10 15 -17 17 -8
3 -12 -1 -9 -9z"/>
<path d="M2640 2290 c0 -5 5 -10 10 -10 6 0 10 5 10 10 0 6 -4 10 -10 10 -5 0
-10 -4 -10 -10z"/>
<path d="M3635 2290 c3 -5 8 -10 11 -10 2 0 4 5 4 10 0 6 -5 10 -11 10 -5 0
-7 -4 -4 -10z"/>
<path d="M3676 2285 c4 -8 10 -15 15 -15 4 0 6 7 3 15 -4 8 -10 15 -15 15 -4
0 -6 -7 -3 -15z"/>
<path d="M3710 2292 c0 -4 6 -14 13 -21 9 -11 9 -14 0 -18 -9 -3 -8 -11 3 -29
19 -28 39 -22 24 7 -8 13 -7 19 0 19 6 0 3 11 -6 25 -16 24 -34 33 -34 17z"/>
<path d="M3760 2294 c0 -4 7 -16 17 -26 15 -17 15 -18 0 -18 -24 0 -21 -15 6
-33 21 -13 24 -13 33 0 8 13 13 12 36 -6 30 -24 29 -29 14 39 -7 30 -15 40
-33 40 -15 0 -14 -2 0 -18 21 -23 21 -32 2 -32 -8 0 -15 4 -15 8 0 5 -13 18
-30 30 -16 13 -30 19 -30 16z"/>
<path d="M4165 2280 c-3 -5 -2 -17 3 -26 8 -14 10 -12 10 9 0 29 -3 33 -13 17z"/>
<path d="M4040 2260 c0 -5 5 -10 11 -10 5 0 7 5 4 10 -3 6 -8 10 -11 10 -2 0
-4 -4 -4 -10z"/>
<path d="M3648 2244 c24 -17 39 -14 27 5 -3 6 -16 11 -28 11 l-21 0 22 -16z"/>
<path d="M2455 2240 c4 -6 11 -8 16 -5 14 9 11 15 -7 15 -8 0 -12 -5 -9 -10z"/>
<path d="M2494 2238 c-3 -4 13 -8 35 -8 23 0 41 2 41 4 0 8 -71 12 -76 4z"/>
<path d="M2585 2240 c-4 -6 3 -10 14 -10 25 0 27 6 6 13 -8 4 -17 2 -20 -3z"/>
<path d="M2640 2240 c0 -5 9 -10 20 -10 11 0 20 5 20 10 0 6 -9 10 -20 10 -11
0 -20 -4 -20 -10z"/>
<path d="M2982 2150 c0 -19 2 -27 5 -17 2 9 2 25 0 35 -3 9 -5 1 -5 -18z"/>
<path d="M3658 2073 c7 -3 16 -2 19 1 4 3 -2 6 -13 5 -11 0 -14 -3 -6 -6z"/>
<path d="M3218 2033 c-22 -25 -27 -58 -8 -58 20 0 48 51 34 65 -7 7 -15 5 -26
-7z"/>
<path d="M3287 2020 c3 -11 7 -20 9 -20 2 0 4 9 4 20 0 11 -4 20 -9 20 -5 0
-7 -9 -4 -20z"/>
<path d="M3821 1953 c0 -6 -4 -20 -7 -30 -5 -14 -4 -15 5 -7 7 7 11 20 8 30
-3 11 -5 14 -6 7z"/>
<path d="M3750 1900 c0 -5 5 -10 10 -10 6 0 10 5 10 10 0 6 -4 10 -10 10 -5 0
-10 -4 -10 -10z"/>
<path d="M4620 1870 c-13 -8 -12 -10 3 -10 9 0 17 5 17 10 0 12 -1 12 -20 0z"/>
<path d="M5141 1843 c-1 -12 8 -45 19 -73 13 -32 20 -74 20 -114 0 -49 5 -69
20 -87 l19 -24 0 120 c0 125 -10 162 -42 150 -10 -4 -18 3 -25 22 -9 25 -11
25 -11 6z"/>
<path d="M1211 1754 c0 -11 3 -14 6 -6 3 7 2 16 -1 19 -3 4 -6 -2 -5 -13z"/>
<path d="M4613 1623 c9 -2 23 -2 30 0 6 3 -1 5 -18 5 -16 0 -22 -2 -12 -5z"/>
<path d="M4668 1613 c7 -3 16 -2 19 1 4 3 -2 6 -13 5 -11 0 -14 -3 -6 -6z"/>
<path d="M4718 1603 c7 -3 16 -2 19 1 4 3 -2 6 -13 5 -11 0 -14 -3 -6 -6z"/>
<path d="M4785 1600 c-3 -5 -1 -10 4 -10 6 0 11 5 11 10 0 6 -2 10 -4 10 -3 0
-8 -4 -11 -10z"/>
<path d="M4843 1593 c9 -2 23 -2 30 0 6 3 -1 5 -18 5 -16 0 -22 -2 -12 -5z"/>
<path d="M1122 1405 c0 -16 2 -22 5 -12 2 9 2 23 0 30 -3 6 -5 -1 -5 -18z"/>
<path d="M5217 1420 c-24 -75 -42 -120 -48 -120 -4 0 -12 -15 -18 -32 -6 -18
-23 -51 -37 -73 l-25 -40 6 50 5 50 -15 -34 c-8 -18 -15 -39 -15 -45 0 -13
-89 -157 -114 -185 -32 -36 -9 -44 26 -9 19 19 21 19 14 2 -21 -50 -22 -48 71
-100 40 -22 57 -21 76 6 l19 25 -7 -38 c-4 -23 -2 -44 5 -52 17 -21 2 -65 -22
-62 -21 2 -27 -5 -53 -63 -17 -39 -83 -112 -140 -156 -31 -24 -40 -26 -57 -15
-10 6 -28 9 -39 6 -30 -10 -115 15 -144 42 -14 14 -47 32 -72 40 -41 14 -44
17 -25 24 22 8 54 5 73 -7 6 -3 24 3 39 14 23 18 29 19 34 7 3 -8 9 -15 15
-15 12 0 21 53 11 64 -6 6 -2 14 8 22 24 17 7 30 -23 16 -14 -6 8 21 50 62 69
69 88 96 66 96 -5 0 -16 -11 -25 -25 -32 -48 -151 -135 -255 -187 -105 -51
-107 -51 -203 -52 -53 -1 -94 -4 -91 -8 2 -5 10 -8 18 -8 7 0 27 -12 44 -26
17 -14 35 -23 41 -19 6 3 7 0 4 -9 -3 -9 -11 -16 -18 -16 -14 0 -136 44 -166
60 -12 6 -24 10 -26 7 -12 -12 139 -75 196 -82 34 -4 61 -18 71 -37 6 -11 9
-22 6 -24 -6 -6 -249 74 -261 86 -6 6 -21 10 -33 10 -18 0 -32 13 -56 51 l-31
51 -205 -5 c-164 -4 -219 -2 -275 10 -39 9 -75 19 -80 23 -5 5 8 25 28 46 l36
37 -21 28 c-11 16 -24 31 -30 35 -16 9 -54 75 -73 125 -16 42 -21 46 -53 47
-19 1 -45 -5 -57 -14 -20 -13 -25 -13 -35 0 -17 20 20 60 39 43 10 -9 11 -9 7
-1 -8 14 16 36 34 32 10 -2 12 7 10 32 -4 44 -7 47 -28 28 -10 -8 -37 -20 -60
-27 -24 -6 -43 -15 -43 -20 0 -4 9 -43 20 -86 22 -85 26 -119 11 -97 -22 36
-149 -64 -250 -197 -58 -76 -101 -147 -101 -168 0 -20 -40 -81 -58 -88 -27
-10 -55 32 -48 73 5 33 4 34 -22 28 -68 -14 -176 -27 -189 -21 -10 3 -37 -15
-78 -54 -34 -33 -74 -63 -89 -67 -30 -7 -159 0 -194 11 -17 6 -22 4 -22 -11 0
-11 -5 -35 -10 -55 -8 -30 -16 -38 -40 -41 -27 -4 -30 -2 -30 21 0 14 9 45 20
68 21 48 23 45 -51 72 -102 37 -128 37 -203 -3 -37 -20 -81 -36 -97 -36 -17 0
-28 -4 -25 -9 8 -13 -12 -25 -79 -45 -33 -10 -68 -22 -77 -27 -23 -12 -118
-12 -118 0 0 5 11 31 24 58 14 27 29 61 35 76 l11 28 -43 -2 c-74 -4 -198 44
-252 98 -28 27 -47 54 -113 166 -8 13 -10 38 -7 62 4 31 0 52 -20 90 l-25 50
0 -112 c0 -64 4 -114 10 -118 6 -3 10 -24 10 -45 0 -21 5 -42 10 -45 6 -3 10
-17 10 -30 0 -13 5 -27 10 -30 6 -3 10 -15 10 -26 0 -17 16 -52 56 -121 7 -11
38 -47 70 -80 l57 -60 151 5 c99 3 165 10 191 20 38 14 40 14 47 -4 4 -11 17
-19 31 -19 43 0 47 -15 47 -172 l0 -148 405 1 c223 1 405 5 405 10 0 4 -5 11
-11 15 -14 8 -7 112 9 141 10 16 12 15 22 -12 6 -16 12 -58 13 -92 l2 -63 251
0 251 0 7 84 c3 46 9 91 12 99 8 21 39 27 77 16 17 -5 49 -9 69 -9 34 0 38 -3
38 -25 0 -14 -15 -40 -38 -65 -69 -71 -74 -79 -67 -90 5 -8 14 -6 31 5 21 14
24 14 24 0 0 -13 35 -15 269 -15 l269 0 6 31 c3 17 6 51 6 75 0 32 5 46 19 53
16 9 19 6 25 -27 3 -20 6 -58 6 -84 l0 -48 135 0 135 0 0 78 c1 71 2 75 16 57
8 -11 21 -19 28 -17 13 2 24 -16 50 -80 l15 -38 95 0 96 0 2 118 c0 64 0 127
-1 140 -2 19 3 22 37 22 21 0 42 4 48 9 5 5 47 12 94 15 136 10 233 22 255 31
31 12 115 97 115 117 0 9 5 20 10 23 6 3 10 17 10 30 0 13 5 27 10 30 6 3 10
24 10 45 0 21 5 42 10 45 6 3 10 21 10 40 0 19 5 37 10 40 6 3 10 19 10 34 0
15 4 31 9 37 13 14 31 97 31 142 0 21 7 61 15 88 12 39 14 83 9 224 -6 164
-15 229 -27 190z m-127 -280 c0 -5 -5 -10 -11 -10 -5 0 -7 5 -4 10 3 6 8 10
11 10 2 0 4 -4 4 -10z m-1740 -74 c-14 -8 -29 -12 -33 -9 -12 8 14 23 38 22
18 0 17 -1 -5 -13z m-27 -248 c4 -10 7 -10 18 0 19 18 27 15 43 -17 13 -24 13
-31 0 -49 -12 -17 -13 -32 -4 -72 0 -3 5 3 11 13 10 18 13 17 40 -9 32 -31 35
-41 15 -67 -14 -18 -16 -18 -40 -2 -14 10 -26 25 -26 35 0 27 -49 32 -79 9
-13 -10 -29 -19 -36 -19 -13 0 -50 -41 -116 -128 -22 -29 -48 -56 -57 -58 -9
-3 -40 -17 -67 -30 -75 -36 -84 -29 -24 19 71 57 117 104 159 163 19 27 54 68
78 91 33 32 42 48 37 63 -4 12 1 29 12 44 20 28 29 32 36 14z m1247 -172 c0
-2 -7 -7 -16 -10 -8 -3 -12 -2 -9 4 6 10 25 14 25 6z m-812 -49 c11 -9 42 -70
42 -84 0 -3 -6 0 -14 6 -7 6 -20 9 -29 5 -17 -6 -42 25 -52 68 -6 24 -5 26 17
21 12 -3 29 -11 36 -16z m-673 -17 c7 -11 -50 -70 -66 -70 -15 0 -10 10 19 45
29 36 37 40 47 25z m1674 -106 c-18 -7 -43 -13 -53 -13 -31 -1 -4 20 36 28 46
11 59 0 17 -15z m-283 -42 c17 -6 19 -10 10 -18 -10 -9 -19 -7 -37 7 -25 19
-14 23 27 11z m-1228 -63 c21 -13 49 -75 39 -85 -15 -15 -138 -39 -176 -34
-41 5 -44 7 -61 54 -23 60 -13 84 40 88 51 4 133 -8 158 -23z m747 -59 c24
-26 13 -52 -21 -48 -18 2 -30 13 -39 36 -14 32 -14 32 14 32 15 0 36 -9 46
-20z m-1817 -49 c26 -1 29 -29 11 -109 -11 -55 -59 -115 -59 -75 0 15 -13 26
-50 42 -27 12 -50 25 -50 29 0 4 6 30 14 57 7 28 11 55 9 61 -2 7 13 8 49 3
29 -4 63 -8 76 -8z m1105 -28 c-7 -2 -19 -2 -25 0 -7 3 -2 5 12 5 14 0 19 -2
13 -5z"/>
<path d="M3470 1380 c0 -5 5 -10 11 -10 5 0 7 5 4 10 -3 6 -8 10 -11 10 -2 0
-4 -4 -4 -10z"/>
<path d="M1230 1339 c0 -5 5 -7 10 -4 6 3 10 8 10 11 0 2 -4 4 -10 4 -5 0 -10
-5 -10 -11z"/>
<path d="M3760 1335 c0 -12 33 -55 41 -55 15 0 10 27 -7 44 -15 16 -34 21 -34
11z"/>
<path d="M1251 1300 c9 -14 24 -40 33 -58 10 -19 20 -32 22 -29 8 8 -32 81
-53 98 -17 13 -17 13 -2 -11z"/>
<path d="M3820 1316 c0 -2 7 -6 15 -10 8 -3 15 -1 15 4 0 6 -7 10 -15 10 -8 0
-15 -2 -15 -4z"/>
<path d="M1401 1245 c-29 -33 -36 -45 -28 -45 2 0 18 18 36 40 40 49 34 53 -8
5z"/>
<path d="M3360 1170 c-12 -8 -10 -10 8 -10 13 0 20 4 17 10 -7 12 -6 12 -25 0z"/>
<path d="M3520 1171 c0 -5 5 -13 10 -16 6 -3 10 -2 10 4 0 5 -4 13 -10 16 -5
3 -10 2 -10 -4z"/>
<path d="M1170 1125 c0 -27 3 -46 6 -42 3 3 6 22 6 42 0 20 -3 39 -6 42 -3 4
-6 -15 -6 -42z"/>
<path d="M3555 1140 c3 -5 8 -10 11 -10 2 0 4 5 4 10 0 6 -5 10 -11 10 -5 0
-7 -4 -4 -10z"/>
<path d="M3530 1123 c0 -13 5 -23 10 -23 13 0 13 11 0 30 -8 12 -10 11 -10 -7z"/>
<path d="M1558 1093 c6 -3 10 -9 7 -14 -4 -5 1 -6 9 -3 23 9 19 20 -6 21 -13
0 -17 -1 -10 -4z"/>
<path d="M4964 841 c4 -5 0 -11 -6 -14 -7 -2 -9 -8 -5 -13 4 -5 12 -2 17 6 13
20 12 30 -1 30 -5 0 -8 -4 -5 -9z"/>
<path d="M5000 820 c0 -5 5 -10 11 -10 5 0 7 5 4 10 -3 6 -8 10 -11 10 -2 0
-4 -4 -4 -10z"/>
<path d="M4910 810 c0 -5 7 -10 16 -10 8 0 12 5 9 10 -3 6 -10 10 -16 10 -5 0
-9 -4 -9 -10z"/>
<path d="M5040 795 c7 -8 17 -15 22 -15 6 0 5 7 -2 15 -7 8 -17 15 -22 15 -6
0 -5 -7 2 -15z"/>
<path d="M5065 750 c3 -5 8 -10 11 -10 2 0 4 5 4 10 0 6 -5 10 -11 10 -5 0 -7
-4 -4 -10z"/>
</g>
</svg>
